<svg width="482" height="482" viewBox="0 0 482 482" fill="none" xmlns="http://www.w3.org/2000/svg">
<path d="M241 0C374.101 0 482 107.899 482 241C482 263.102 479.023 284.508 473.451 304.841C473.411 304.987 473.371 305.133 473.331 305.279C472.848 307.028 472.346 308.769 471.825 310.502C471.781 310.649 471.737 310.796 471.692 310.943C471.449 311.748 471.2 312.551 470.948 313.353C470.913 313.466 470.878 313.579 470.842 313.692C470.587 314.5 470.327 315.305 470.063 316.108C470.02 316.242 469.976 316.375 469.933 316.508C469.836 316.802 469.738 317.097 469.64 317.391C469.574 317.586 469.509 317.781 469.443 317.977C469.346 318.265 469.248 318.552 469.15 318.84C469.1 318.987 469.05 319.134 469 319.28C468.885 319.615 468.77 319.949 468.653 320.283C468.61 320.406 468.567 320.529 468.524 320.652C468.411 320.977 468.297 321.301 468.182 321.625C468.132 321.766 468.081 321.906 468.031 322.047C467.91 322.387 467.788 322.727 467.665 323.066C467.629 323.166 467.593 323.266 467.557 323.365C467.26 324.181 466.959 324.995 466.653 325.807C466.609 325.923 466.565 326.04 466.521 326.156C466.218 326.958 465.911 327.759 465.6 328.557C465.563 328.651 465.526 328.745 465.489 328.839C464.824 330.538 464.141 332.227 463.438 333.907C463.381 334.044 463.323 334.181 463.266 334.317C463.138 334.622 463.009 334.926 462.88 335.23C462.83 335.347 462.78 335.464 462.73 335.58C462.596 335.894 462.463 336.208 462.327 336.521C462.257 336.684 462.186 336.847 462.115 337.01C461.412 338.627 460.692 340.235 459.954 341.834C459.882 341.991 459.809 342.147 459.736 342.304C459.604 342.589 459.471 342.874 459.338 343.158C459.268 343.308 459.197 343.458 459.126 343.607C458.99 343.895 458.855 344.183 458.719 344.47C458.645 344.624 458.571 344.779 458.497 344.934C458.366 345.208 458.234 345.482 458.102 345.756C458.03 345.904 457.958 346.053 457.886 346.201C457.738 346.505 457.59 346.808 457.441 347.111C457.38 347.237 457.318 347.363 457.256 347.488C457.115 347.775 456.973 348.061 456.83 348.347C456.739 348.529 456.648 348.712 456.557 348.895C456.428 349.151 456.298 349.408 456.168 349.664C456.108 349.783 456.047 349.902 455.986 350.021C454.297 353.345 452.534 356.625 450.698 359.857C450.632 359.974 450.566 360.091 450.5 360.207C450.095 360.918 449.686 361.627 449.273 362.333C449.159 362.529 449.044 362.724 448.929 362.919C448.794 363.148 448.66 363.376 448.525 363.604C448.416 363.79 448.305 363.975 448.194 364.16C448.069 364.37 447.945 364.58 447.819 364.789C447.666 365.044 447.512 365.299 447.358 365.554C446.501 366.971 445.63 368.379 444.744 369.777C444.457 370.231 444.169 370.683 443.879 371.135C440.592 376.249 437.116 381.23 433.462 386.069C433.43 386.112 433.399 386.156 433.366 386.199C433.204 386.413 433.041 386.626 432.878 386.84C432.718 387.05 432.559 387.26 432.398 387.469C431.908 388.109 431.413 388.747 430.916 389.382C430.823 389.5 430.731 389.619 430.638 389.737C430.155 390.352 429.669 390.965 429.18 391.575C429.074 391.707 428.969 391.838 428.863 391.97C427.795 393.297 426.713 394.612 425.618 395.916C425.482 396.078 425.347 396.239 425.211 396.4C425.069 396.569 424.926 396.736 424.783 396.904C424.602 397.117 424.421 397.33 424.239 397.543C423.737 398.131 423.232 398.716 422.724 399.299C422.62 399.418 422.516 399.537 422.412 399.655C420.962 401.312 419.489 402.949 417.994 404.565C417.846 404.725 417.699 404.885 417.551 405.045C415.71 407.026 413.835 408.975 411.929 410.893C411.857 410.965 411.786 411.037 411.714 411.109C411.478 411.346 411.242 411.581 411.006 411.816C410.874 411.948 410.742 412.079 410.609 412.21C409.713 413.098 408.81 413.979 407.899 414.854C407.776 414.972 407.652 415.091 407.528 415.209C406.947 415.764 406.364 416.317 405.777 416.866C405.664 416.973 405.55 417.079 405.436 417.186C405.261 417.349 405.086 417.511 404.911 417.674C404.739 417.834 404.566 417.994 404.394 418.153C404.171 418.359 403.947 418.565 403.724 418.77C403.606 418.877 403.489 418.984 403.371 419.092C403.141 419.302 402.91 419.511 402.679 419.721C402.557 419.831 402.436 419.94 402.314 420.05C402.068 420.272 401.821 420.494 401.573 420.715C401.48 420.798 401.387 420.882 401.294 420.965C401.039 421.192 400.784 421.419 400.528 421.645C400.396 421.761 400.264 421.878 400.132 421.994C399.907 422.192 399.682 422.388 399.457 422.585C399.345 422.683 399.233 422.781 399.12 422.879C398.888 423.081 398.656 423.282 398.424 423.482C398.231 423.649 398.039 423.814 397.846 423.979C397.706 424.099 397.566 424.219 397.426 424.339C397.205 424.527 396.985 424.715 396.764 424.902C396.627 425.019 396.49 425.135 396.353 425.251C396.11 425.456 395.867 425.66 395.623 425.864C395.458 426.003 395.292 426.14 395.127 426.278C395.015 426.372 394.903 426.465 394.791 426.558C394.497 426.802 394.202 427.045 393.906 427.288C393.84 427.342 393.775 427.397 393.709 427.451C393.46 427.655 393.21 427.858 392.96 428.062C392.779 428.209 392.598 428.355 392.417 428.502C392.197 428.68 391.977 428.857 391.757 429.034C391.637 429.13 391.517 429.226 391.396 429.322C391.144 429.524 390.892 429.726 390.639 429.927C390.496 430.04 390.352 430.153 390.209 430.266C389.984 430.444 389.758 430.622 389.532 430.799C389.392 430.909 389.252 431.018 389.111 431.127C388.889 431.301 388.667 431.475 388.443 431.647C388.23 431.813 388.015 431.978 387.801 432.143C387.632 432.272 387.464 432.401 387.295 432.53C387.139 432.649 386.984 432.768 386.828 432.887C386.588 433.069 386.348 433.252 386.107 433.434C385.959 433.545 385.811 433.657 385.663 433.769C385.439 433.937 385.214 434.106 384.989 434.274C384.836 434.389 384.682 434.502 384.528 434.616C383.932 435.059 383.334 435.498 382.734 435.936C382.507 436.101 382.279 436.267 382.051 436.432C381.874 436.559 381.698 436.687 381.521 436.814C381.33 436.951 381.139 437.087 380.948 437.224C380.751 437.364 380.554 437.505 380.356 437.646C380.141 437.798 379.925 437.95 379.709 438.103C379.533 438.227 379.356 438.352 379.18 438.476C378.979 438.616 378.778 438.756 378.577 438.896C378.389 439.028 378.201 439.159 378.012 439.29C377.756 439.467 377.5 439.643 377.243 439.819C377.114 439.908 376.984 439.997 376.854 440.086C376.594 440.264 376.333 440.441 376.071 440.618C375.928 440.715 375.784 440.813 375.641 440.91C375.431 441.051 375.222 441.192 375.012 441.333C374.805 441.471 374.599 441.609 374.393 441.747C374.226 441.858 374.059 441.968 373.892 442.079C373.662 442.231 373.433 442.383 373.203 442.534C372.174 443.211 371.139 443.879 370.099 444.54C369.914 444.657 369.729 444.775 369.544 444.892C369.403 444.981 369.262 445.07 369.12 445.159C368.877 445.312 368.635 445.464 368.392 445.616C368.179 445.749 367.966 445.881 367.753 446.013C367.525 446.154 367.297 446.294 367.069 446.435C366.432 446.827 365.791 447.215 365.149 447.602C364.974 447.707 364.799 447.813 364.624 447.918C363.959 448.316 363.291 448.711 362.621 449.104C362.469 449.192 362.318 449.282 362.166 449.371C361.481 449.771 360.792 450.166 360.103 450.559C359.946 450.648 359.789 450.738 359.632 450.827C359.04 451.163 358.446 451.495 357.851 451.825C356.915 452.345 355.977 452.859 355.034 453.366C354.639 453.579 354.243 453.79 353.847 454.001C352.66 454.631 351.466 455.251 350.268 455.862C349.983 456.007 349.699 456.152 349.414 456.296C348.75 456.631 348.083 456.963 347.415 457.292C347.224 457.386 347.034 457.481 346.843 457.574C346.789 457.601 346.735 457.627 346.681 457.653C346.282 457.848 345.883 458.042 345.483 458.234C344.746 458.59 344.006 458.941 343.264 459.289C343.203 459.318 343.143 459.347 343.082 459.375C342.755 459.528 342.427 459.68 342.099 459.832C341.936 459.907 341.773 459.983 341.609 460.058C340.503 460.567 339.392 461.068 338.276 461.561C337.601 461.859 336.924 462.154 336.245 462.446C336.128 462.497 336.011 462.546 335.894 462.597C335.136 462.922 334.377 463.243 333.615 463.561C333.381 463.658 333.146 463.755 332.911 463.852C332.682 463.946 332.453 464.042 332.224 464.136C331.975 464.237 331.726 464.338 331.477 464.438C331.296 464.512 331.115 464.585 330.935 464.658C330.712 464.748 330.49 464.836 330.268 464.925C329.988 465.036 329.708 465.148 329.428 465.259C329.31 465.305 329.191 465.351 329.073 465.397C328.784 465.511 328.496 465.625 328.206 465.737C327.965 465.831 327.722 465.924 327.48 466.017C327.232 466.112 326.983 466.208 326.733 466.303C326.561 466.368 326.389 466.434 326.217 466.499C325.97 466.592 325.723 466.686 325.476 466.778C325.213 466.877 324.95 466.974 324.688 467.071C324.481 467.148 324.274 467.225 324.066 467.301C323.84 467.384 323.613 467.466 323.386 467.549C323.154 467.633 322.922 467.718 322.689 467.802C322.434 467.894 322.178 467.984 321.923 468.075C321.726 468.145 321.529 468.215 321.332 468.285C321.115 468.362 320.898 468.439 320.681 468.515C320.4 468.613 320.118 468.711 319.837 468.809C319.701 468.856 319.564 468.902 319.428 468.949C319.094 469.064 318.759 469.179 318.425 469.292C318.272 469.344 318.119 469.395 317.967 469.446C317.678 469.544 317.388 469.641 317.099 469.737C316.939 469.791 316.778 469.844 316.618 469.896C316.28 470.008 315.941 470.119 315.602 470.229C315.459 470.276 315.316 470.322 315.173 470.368C314.908 470.454 314.644 470.538 314.379 470.623C314.123 470.705 313.867 470.786 313.611 470.867C313.388 470.938 313.165 471.008 312.941 471.078C312.717 471.148 312.493 471.217 312.269 471.286C311.992 471.372 311.715 471.457 311.438 471.542C311.289 471.588 311.139 471.632 310.989 471.678C310.68 471.771 310.371 471.866 310.062 471.958C309.869 472.015 309.677 472.072 309.484 472.129C309.214 472.209 308.944 472.288 308.673 472.367C308.44 472.435 308.206 472.503 307.973 472.57C307.761 472.631 307.55 472.692 307.338 472.753C307.076 472.828 306.814 472.902 306.552 472.976C306.304 473.045 306.057 473.116 305.81 473.185C305.645 473.23 305.48 473.276 305.315 473.321C304.989 473.411 304.662 473.501 304.335 473.59C304.163 473.636 303.992 473.683 303.82 473.729C303.545 473.804 303.27 473.877 302.995 473.95C302.741 474.018 302.486 474.085 302.231 474.151C302.054 474.198 301.877 474.244 301.7 474.29C301.329 474.386 300.958 474.482 300.587 474.576C300.535 474.589 300.483 474.602 300.431 474.615C300.021 474.719 299.611 474.822 299.2 474.924C299.113 474.945 299.026 474.968 298.938 474.989C298.556 475.084 298.174 475.177 297.791 475.27C297.704 475.291 297.617 475.311 297.529 475.332C297.172 475.418 296.813 475.503 296.455 475.588C296.274 475.63 296.094 475.673 295.913 475.715C295.572 475.794 295.23 475.873 294.889 475.951C294.803 475.971 294.718 475.989 294.633 476.009C294.249 476.096 293.865 476.183 293.48 476.269C293.356 476.296 293.231 476.323 293.106 476.351C292.781 476.422 292.456 476.493 292.131 476.563C291.885 476.617 291.639 476.669 291.393 476.722C291.198 476.763 291.003 476.805 290.809 476.846C290.537 476.903 290.264 476.959 289.992 477.016C289.732 477.069 289.471 477.123 289.21 477.176C289.012 477.216 288.815 477.255 288.617 477.295C288.361 477.346 288.106 477.398 287.85 477.448C287.52 477.513 287.19 477.577 286.859 477.641C286.726 477.666 286.593 477.692 286.46 477.718C286.181 477.771 285.901 477.824 285.621 477.876C285.331 477.93 285.041 477.984 284.751 478.037C284.627 478.06 284.503 478.083 284.379 478.105C284.009 478.173 283.64 478.238 283.27 478.304C283.065 478.34 282.859 478.376 282.654 478.412C282.45 478.448 282.245 478.483 282.04 478.519C281.713 478.575 281.387 478.63 281.06 478.685C280.859 478.718 280.659 478.752 280.458 478.785C280.194 478.829 279.929 478.871 279.664 478.914C279.442 478.95 279.219 478.985 278.997 479.021C278.609 479.082 278.221 479.143 277.832 479.202C277.773 479.211 277.715 479.22 277.656 479.229C277.316 479.28 276.975 479.331 276.634 479.382C276.391 479.418 276.149 479.454 275.906 479.489C275.749 479.512 275.592 479.534 275.435 479.557C275.116 479.602 274.797 479.648 274.479 479.692C274.219 479.728 273.96 479.764 273.7 479.799C273.472 479.83 273.244 479.86 273.016 479.891C272.742 479.927 272.468 479.963 272.193 479.998C271.968 480.027 271.742 480.056 271.517 480.085C271.287 480.114 271.056 480.142 270.826 480.171C270.533 480.207 270.24 480.243 269.947 480.278C269.744 480.303 269.54 480.327 269.336 480.351C269.066 480.382 268.796 480.414 268.525 480.444C268.153 480.487 267.78 480.528 267.407 480.568C267.304 480.58 267.2 480.591 267.097 480.603C266.796 480.635 266.496 480.666 266.195 480.697C265.933 480.725 265.67 480.752 265.407 480.778C265.233 480.796 265.058 480.813 264.884 480.83C264.593 480.859 264.302 480.887 264.011 480.915C263.751 480.94 263.491 480.964 263.23 480.987C262.964 481.012 262.697 481.036 262.431 481.06C262.165 481.083 261.899 481.105 261.633 481.128C261.414 481.146 261.195 481.165 260.977 481.183C260.657 481.209 260.338 481.234 260.019 481.259C259.829 481.274 259.639 481.289 259.449 481.304C259.187 481.324 258.924 481.342 258.661 481.361C258.408 481.38 258.154 481.398 257.9 481.416C257.062 481.474 256.222 481.527 255.382 481.576C255.202 481.587 255.022 481.598 254.842 481.608C254.594 481.622 254.346 481.635 254.098 481.648C253.842 481.662 253.585 481.677 253.329 481.689C253.075 481.702 252.82 481.714 252.565 481.726C252.301 481.738 252.037 481.751 251.772 481.763C250.924 481.8 250.074 481.832 249.224 481.86C249.049 481.866 248.875 481.873 248.7 481.879C248.499 481.885 248.298 481.89 248.097 481.896C247.79 481.904 247.483 481.914 247.176 481.922C246.989 481.927 246.803 481.93 246.616 481.935C246.284 481.942 245.951 481.95 245.618 481.956C245.573 481.957 245.527 481.958 245.481 481.959C243.991 481.986 242.497 482 241 482C107.899 482 0 374.101 0 241C0 107.899 107.899 0 241 0ZM241 246H4.05273C6.71393 374.583 111.779 478 241 478V246H477.947C477.982 244.337 478 242.671 478 241C478 110.109 371.891 4 241 4V246Z" fill="black"/>
</svg>
